<?xml version="1.0" standalone="no"?>
<!DOCTYPE svg PUBLIC "-//W3C//DTD SVG 20010904//EN"
 "http://www.w3.org/TR/2001/REC-SVG-20010904/DTD/svg10.dtd">
<svg version="1.0" xmlns="http://www.w3.org/2000/svg"
 width="64.000000pt" height="64.000000pt" viewBox="0 0 64.000000 64.000000"
 preserveAspectRatio="xMidYMid meet">

<g transform="translate(0.000000,64.000000) scale(0.100000,-0.100000)"
fill="#000000" stroke="none">
<path d="M226 594 c-71 -22 -159 -112 -180 -184 -34 -115 -12 -206 73 -291 85
-85 176 -107 291 -73 75 22 162 109 184 184 34 115 12 204 -72 290 -45 46 -69
62 -111 74 -67 20 -120 19 -185 0z m153 -20 c29 -6 32 -10 29 -38 -2 -24 -11
-34 -37 -47 -44 -21 -55 -42 -39 -76 7 -14 21 -31 31 -37 19 -11 32 -1 64 50
11 18 13 18 38 -8 16 -18 36 -28 53 -28 52 0 66 -20 60 -87 -13 -136 -108
-230 -245 -241 -54 -4 -64 -2 -70 14 -8 22 -7 67 3 113 6 30 3 37 -21 57 l-28
22 26 32 c30 36 34 62 12 80 -26 21 -62 -2 -74 -48 -6 -21 -20 -47 -31 -57
-19 -17 -22 -17 -37 -2 -14 13 -15 21 -5 42 15 32 8 45 -23 45 -21 0 -23 3
-15 29 38 134 170 213 309 185z"/>
<path d="M447 274 c-15 -8 -36 -12 -47 -9 -34 11 -35 -17 -1 -47 40 -36 52
-35 91 3 51 52 21 89 -43 53z"/>
</g>
</svg>
